<?xml version="1.0" encoding="UTF-8"?>
<svg id="Layer_1" data-name="Layer 1" xmlns="http://www.w3.org/2000/svg" viewBox="0 0 715.41 426.57">
  <defs>
    <style>
      .cls-1 {
        fill: #73945f;
      }
    </style>
  </defs>
  <path class="cls-1" d="M502.65,426.41c-34.33,0-68.66,.14-102.99-.05-18.85-.11-37.05-3.79-53.95-12.41-29.53-15.08-46.5-39.76-52.15-71.9-2.43-13.83-2.85-28.13-2.99-42.23-.38-39.49-.42-79,.02-118.49,.16-14.92,.64-30.07,3.38-44.66,4.54-24.15,19.42-41.54,40.87-53.15,6.99-3.78,14.32-7.09,21.79-9.78,13.3-4.79,23.27-13.32,30.55-25.19,11.33-18.45,25.43-34.04,46.4-41.29,8.98-3.1,18.7-4.81,28.2-5.54,30.43-2.34,60.93-2.5,91.3,.85,25.76,2.84,45.17,16.5,59.75,37.48,3.6,5.18,6.68,10.74,10.39,15.83,6.15,8.43,14.36,14.15,24.27,17.54,15.38,5.26,29.79,12.26,41.88,23.47,15.31,14.18,22.76,32.14,24.81,52.42,1.08,10.74,1.17,21.61,1.19,32.42,.08,45.66-.05,91.33-.08,136.99-.04,58.36-39.21,101.49-97.22,106.79-8.44,.77-16.96,.97-25.44,1-30,.12-59.99,.05-89.99,.05,0-.04,0-.09,0-.13Zm121.59-184.42c0-64.39-51.73-116.35-116.05-116.58-63.82-.22-116.75,51.83-116.78,114.85-.03,65.68,51.46,118.07,116.06,118.08,64.68,.01,116.77-51.9,116.77-116.35Z"/>
  <path class="cls-1" d="M571.66,171.16c-13.36,4.05-18.43,10.73-19.32,24.3-1.02,15.5,3.33,29.06,14.59,39.86,3.75,3.59,8.45,6.45,13.19,8.64,3.68,1.7,5.36,3.38,5.38,7.63,.15,38.83-30.4,75.75-68.83,81.77-31.46,4.93-58.08-4.91-79.1-29.05-1.2-1.38-1.36-3.71-1.87-5.63-.42-1.57-.42-3.27-.97-4.78-4.4-12.2-8.94-24.34-13.25-36.56-.55-1.57,0-3.53,.05-5.31,1.42,1.29,3.51,2.32,4.17,3.92,4.81,11.68,9.27,23.49,14.01,35.2,.83,2.05,2.4,3.81,3.63,5.7,.58-.23,1.16-.46,1.74-.7-.18-1.62-.06-3.34-.59-4.83-5.38-15.19-10.81-30.37-16.36-45.5-1.73-4.71-4.57-8.61-9.95-9.56-3.57-.63-3.27-3.13-3.1-5.66,1.36-19.43,9.67-35.71,22.51-49.97,21.64-24,49-33.22,80.71-31.45,17.93,1,38.86,9.46,53.35,21.96Z"/>
  <path class="cls-1" d="M525.91,341.98c24.36-8.27,42.77-23.17,55.84-44.92,10.22-17,13.8-35.45,12.5-55.06-.21-3.24-1.64-4.52-4.83-5.07-20.17-3.5-34.05-29.07-26.37-48.31,1.82-4.55,4.82-7.58,8.46-8.85,5.25-1.83,10.37,.8,12.78,2.04,7.95,4.09,11.66,11.35,15.44,19,2.21,4.47,4.81,10.79,6.64,19.15,.9,4.13,3.17,15.86,1.53,31.15-.48,4.49-2.51,20.55-12.27,38.92,0,0-13.38,25.15-40.08,42.71-11.12,7.31-19.11,8.81-24.45,9.23-1.72,.14-3.46,.02-5.2,.02Z"/>
  <path class="cls-1" d="M412.41,255.02c1.08,1.37,2.53,2.58,3.19,4.13,5.43,12.8,10.79,25.64,15.94,38.55,.58,1.45-.3,3.48-.5,5.24-1.46-.96-3.71-1.59-4.25-2.92-5.34-13.19-10.44-26.48-15.49-39.79-.52-1.36-.28-3-.39-4.51,.5-.24,1.01-.47,1.51-.71Z"/>
  <path class="cls-1" d="M402.7,258.96c1.1,1.24,2.66,2.3,3.21,3.75,5.14,13.48,10.14,27.01,15.09,40.57,.42,1.16,.23,2.55,.42,5.31-2.04-1.5-3.71-2.07-4.11-3.13-5.4-14.09-10.66-28.24-15.86-42.4-.37-1-.05-2.24-.05-3.37,.43-.24,.86-.48,1.29-.72Z"/>
</svg>