<svg width="3186" height="1690" viewBox="0 0 3186 1690" fill="none" xmlns="http://www.w3.org/2000/svg">
<path fill-rule="evenodd" clip-rule="evenodd" d="M1972.23 128.376C1984.66 147.472 1984.39 147.483 1985.65 148.992C1987.57 151.283 1991.24 151.609 1993.15 153.899C1993.54 155.311 1998.01 171.487 1998.01 171.487C1999.19 173.56 2002.6 173.886 2003.5 176.101C2006.06 182.376 2001.25 186.545 2015.2 192.309C2018.77 193.797 2023.45 197.792 2026.41 195.295C2027.71 194.198 2026.12 194.003 2021.82 174.516L2042.45 163.735C2044.88 197.803 2046.46 203.882 2047.34 207.28C2057.43 246.07 2052.11 246.537 2057.1 272.668C2066.29 320.708 2061.45 321.327 2072.82 369.138C2079.4 396.735 2071.04 397.409 2077.73 424.962C2085.52 457.086 2085.6 456.891 2088.01 489.851C2088.97 503.074 2094.34 516.134 2097.37 543.644C2105.1 613.874 2107.58 613.505 2107.91 619.639C2109.63 652.425 2115.84 651.242 2118.1 684.322C2121.89 739.711 2126.87 738.745 2131.85 793.852C2133.15 808.334 2137.46 814.36 2140.75 847.591C2143.98 880.236 2149.32 879.324 2150.74 912.328C2152.65 956.654 2160.93 955.482 2162.75 999.591C2164.31 1038.09 2170.52 1037.09 2174.09 1075.6C2176.6 1102.63 2178.48 1102.08 2182.24 1129.13C2193.47 1209.6 2194.2 1229.57 2194.51 1238.36C2211.67 1309.44 2205.41 1311.19 2206.32 1324.98C2207.04 1335.89 2206.1 1335.75 2199.38 1343.91C2177.7 1349.37 2174.97 1346.3 2162.62 1365.31C2143.42 1394.84 2133.52 1377.44 2070.43 1393.53C2042.9 1400.54 2042.16 1392.12 2014.74 1398.72C2007.9 1400.37 2001.26 1402.77 1994.44 1404.49C1966.94 1411.44 1966.17 1403 1938.76 1409.64C1931.92 1411.3 1925.26 1413.68 1918.43 1415.39C1892.12 1421.98 1890.99 1412.85 1852.76 1423.66C1815.61 1434.17 1814.17 1424.13 1776.82 1434.68C1739.68 1445.17 1738.3 1435.2 1700.85 1445.65C1663.73 1456.01 1662.31 1446.22 1624.89 1456.65C1587.71 1467 1586.29 1457.36 1548.94 1467.65C1511.63 1477.94 1510.3 1468.48 1472.94 1478.48C1471.18 1478.96 1471.29 1478.8 1450.58 1482.89C1417.9 1484.02 1418.53 1485.65 1386.45 1491.83C1353.86 1498.1 1353.29 1491.84 1320.99 1500.43C1288.55 1509.06 1287.37 1499.45 1254.98 1508.25C1212.85 1519.67 1211.49 1511.11 1169.05 1522.28C1147.08 1528.07 1130.31 1522.45 1103.02 1530.14C1060.92 1542.03 1059.57 1533.35 1017.1 1544.26C995.78 1549.73 980.56 1543.82 951.139 1552.16C946.047 1553.6 933.91 1557.05 885.555 1560.5C869.922 1545.48 870.454 1545.17 852.443 1533.63C766.048 1478.27 626.652 1525.48 530.117 1483.2C472.654 1458.02 446.783 1419.34 441.735 1411.79C343.017 1264.16 222.457 1283.5 148.112 1188.19L144.215 1168.22C173.31 1144.56 209.592 1120.33 197.976 1032.86C192.396 990.765 151.521 945.19 116.433 932.206C76.8401 917.55 64.4963 922.055 62.8461 879.856C62.7376 877.12 41.1876 733.653 41.0139 727.899C40.1128 697.1 37.1925 697.925 30.1358 662.804C28.5616 624.557 24.5122 625.252 22.7534 587.059L3.21191 576.376L3.23364 565.694C6.17572 560.385 14.6546 559.799 17.5967 554.49C19.3771 551.265 15.3385 547.325 15.4362 543.644C15.4579 542.819 18.4869 535.849 18.9428 522.159C19.8331 495.279 33.1213 479.125 34.3915 475.9C35.6943 472.589 33.7836 468.301 35.7269 465.315C41.5025 456.435 53.2165 451.462 56.7666 441.475C58.2756 437.23 46.2901 435.58 47.7992 431.335C53.5965 428.056 52.6086 426.916 61.044 423.844C82.4094 416.092 75.1682 404.009 93.1898 400.166C183.255 380.983 251.085 374.773 257.762 373.318C295.759 365.056 296.628 372.764 333.768 362.527C371.852 352.029 372.558 358.933 386.4 355.535C418.773 347.578 418.545 347.187 451.907 345.645C488.623 343.941 488.482 337.611 506.222 335.842C588.394 327.656 736.529 301.709 842.564 290.408C858.056 288.758 880.105 282.092 886.185 281.495C946.84 275.556 946.058 270.953 951.323 270.541C984.49 267.881 984.49 270.139 1016.7 261.606C1030.76 257.871 1060.15 260.715 1093.66 253.898C1126.08 247.319 1126.13 250.261 1158.5 244.952C1298.65 221.98 1299.06 224.824 1310.89 221.318C1357.98 207.345 1359.77 219.016 1407.56 207.497C1417.96 204.99 1453.05 203.698 1473.6 199.594C1511.43 192.049 1512.01 197.379 1549.6 188.738C1589.04 179.672 1589.77 186.099 1625.58 177.849C1688.9 163.258 1744.25 162.639 1766.83 156.19C1809.17 144.096 1810.89 156.233 1853.54 145.312C1891.8 135.509 1892.8 141.773 1918.81 134.618C1944.87 127.442 1944.94 129.429 1972.23 128.376Z" fill="#FDFDF8"/>
<path fill-rule="evenodd" clip-rule="evenodd" d="M2883.98 0C2890.79 2.80095 2889.09 5.16767 2895.66 7.87092C2896.48 8.20747 2900.79 9.97703 2906.54 9.28222C2908.95 8.9891 2910.51 6.06875 2912.92 5.77562C2919.27 10.6936 2917.02 13.3425 2928.99 18.2062C2946.5 25.328 2946.9 23.3304 2948.29 24.1446C2949.94 25.1217 2950.02 28.053 2951.83 28.6935C2953.59 29.3014 2955.55 26.5113 2957.25 27.2713C2959.4 28.2267 2958.6 28.9324 2978.52 47.5077C2984.3 52.8924 2984.51 51.9153 2991.14 56.7898C2993.01 62.5329 2994.88 68.2759 2996.76 74.0189C2997.81 75.9622 3001.38 75.4737 3002.43 77.417C3004.03 80.3482 3002.95 84.148 3003.98 87.3289C3006.41 94.7873 3015.13 105.481 3020.22 142.479C3047.74 342.704 3050.91 341.922 3052.52 359.39C3056.04 398.028 3060.19 397.04 3063.53 435.363C3067.83 484.63 3066.16 487.854 3043.59 507.428C2944.73 593.15 3001.57 688.893 3020.91 709.878C3026.53 715.958 3027.88 713.667 3034.19 718.846C3036.27 720.55 3035.73 724.448 3037.94 725.989C3040.5 727.781 3044.56 726.087 3047.12 727.878C3050.5 730.875 3051.35 728.758 3054.49 731.537C3057.4 734.121 3054.97 735.489 3058.37 737.855C3061.02 739.712 3064.89 739.017 3067.64 740.722C3069.21 741.699 3068.82 744.89 3070.59 745.422C3072.85 746.106 3075.16 743.088 3077.44 743.685C3079.04 744.098 3078.53 747.225 3080.04 747.898C3080.04 747.898 3099.46 749.472 3101.14 749.613C3103.79 754.238 3099.4 754.922 3102.01 759.47C3104.06 763.075 3106.47 759.492 3108.93 763.238C3114.19 771.261 3116.19 800.486 3116.42 803.776C3119.05 842.153 3125.08 841.198 3127.19 879.836C3129.28 918.441 3136.04 917.333 3138.16 955.798C3139.1 972.614 3139.71 972.299 3155.9 1086.4C3164.74 1148.72 3117.07 1243.42 3024.56 1256.38C2835.46 1282.88 2835.97 1284.48 2819.49 1286.3C2749.22 1294.13 2749.62 1296.56 2743.52 1297.22C2665.25 1305.76 2598.46 1318.27 2591.51 1318.99C2528.35 1325.53 2438.36 1341.49 2427.5 1342.64C2368.33 1348.94 2368.68 1351.16 2363.55 1351.65C2257.84 1362.01 2239.99 1380.98 2213.73 1353.72C2204.23 1343.85 2202.38 1345.97 2199.38 1343.91C2206.1 1335.75 2207.04 1335.89 2206.32 1324.98C2205.41 1311.19 2211.67 1309.45 2194.51 1238.36C2194.2 1229.57 2193.47 1209.6 2182.24 1129.13C2178.48 1102.08 2176.6 1102.63 2174.09 1075.6C2170.52 1037.09 2164.31 1038.09 2162.75 999.592C2160.93 955.483 2152.65 956.655 2150.74 912.329C2149.32 879.325 2143.98 880.237 2140.75 847.592C2137.46 814.361 2133.15 808.335 2131.85 793.853C2126.87 738.746 2121.89 739.712 2118.1 684.323C2115.84 651.243 2109.63 652.426 2107.91 619.64C2107.58 613.506 2105.1 613.875 2097.37 543.645C2094.34 516.135 2088.97 503.075 2088.01 489.852C2085.6 456.892 2085.52 457.087 2077.73 424.963C2071.04 397.41 2079.4 396.736 2072.82 369.139C2061.44 321.328 2066.29 320.709 2057.1 272.669C2052.11 246.538 2057.43 246.071 2047.34 207.281C2046.46 203.883 2044.88 197.804 2042.45 163.736L2024.99 149.102C2030.12 143.912 2031.71 146.464 2036.67 141.448C2037.58 140.514 2041.83 136.237 2045.84 128.03C2047.23 125.207 2046.4 121.613 2047.79 118.78C2086.62 119.019 2085.36 108.206 2123.98 109.031C2159.24 109.78 2159.34 97.2625 2189.11 97.8162C2192.5 97.8813 2224.94 98.4893 2231.39 94.429C2232.94 93.4519 2231.61 90.1841 2233.16 89.2071C2240.48 84.5822 2288.25 89.2179 2297.24 85.7222C2298.59 85.1902 2298.43 82.5195 2299.86 82.2047C2302.34 81.6619 2305.02 84.4519 2307.36 83.4966C2309.04 82.8126 2307.64 79.3386 2309.17 78.3941C2315.46 74.5075 2356.62 76.9393 2362.79 76.3965C2387.82 74.1818 2384.59 68.0154 2385.2 67.6462C2391.75 63.7271 2433.19 66.1047 2438.78 65.5944C2461.51 63.51 2459.48 54.1083 2482.18 54.2929C2489.45 54.3472 2496.69 54.8357 2503.95 54.8792C2519.16 54.9769 2526.41 49.9178 2527.8 49.6572C2530.27 49.1904 2532.94 51.5462 2535.28 50.6234C2536.85 50.0154 2535.73 46.802 2537.19 45.9769C2543.58 42.3617 2582.61 44.5439 2590.76 43.7296C2614.77 41.3412 2612.14 35.7393 2613.2 35.1422C2619.46 31.5921 2659.17 33.6766 2666.75 32.9166C2691.34 30.4739 2688.79 24.644 2689.24 24.4052C2696.12 20.6163 2751.65 24.5572 2763.24 18.0976C2764.66 17.3051 2763.85 14.4499 2765.29 13.6899C2769.67 11.3232 2794.53 11.9095 2797.07 11.9746C2835.06 12.8648 2849.54 1.68277 2862.2 0.705693C2869.44 0.14116 2876.74 0.564533 2883.98 0Z" fill="#92AA82"/>
<path fill-rule="evenodd" clip-rule="evenodd" d="M778.196 1177.36C834.302 1172.25 1102.59 1128.88 1179.72 1121.33C1184.91 1120.82 1434.63 1079.24 1494.35 1078.91C1601.48 1078.33 1605.57 1170.79 1603.63 1184.26C1589.89 1279.17 1487.02 1278.19 1482.75 1279.23C1435.2 1290.87 1434.13 1284.09 1386.56 1295.98C1359.34 1302.8 1358.17 1293.7 1320.83 1304.31C1283.56 1314.9 1282.03 1304.77 1244.86 1315.23C1207.78 1325.69 1206.36 1315.64 1168.89 1326.18C1131.81 1336.59 1130.26 1326.81 1092.97 1337.26C1064.23 1345.33 1048.4 1339.49 1026.93 1345.08C984.706 1356.06 983.274 1347.44 941.02 1359.16C913.358 1366.82 896.683 1361.38 875.013 1367.03C832.402 1378.14 831.251 1369.83 789.042 1380.96C688.294 1407.51 632.014 1319.35 645.607 1270.42C665.289 1199.59 710.995 1188.38 778.196 1177.36Z" fill="#8FA67D"/>
<path fill-rule="evenodd" clip-rule="evenodd" d="M3101.14 749.612C3114.58 752.196 3118.45 747.365 3123.39 760.371C3124.59 763.519 3124.13 767.308 3125.94 770.153C3127 771.824 3130.05 771.238 3131.28 772.791C3140.91 784.906 3136.72 786.394 3139.65 815.673C3140.33 822.491 3148.79 841.229 3150.09 848.156C3161.08 906.607 3157.06 906.987 3158.05 912.035C3163.92 942.14 3159.98 955.754 3164.02 967.891C3170.99 988.833 3172.45 988.497 3170.93 1010.39C3168.19 1049.86 3182.76 1063.56 3182.98 1086.49C3183.68 1164.34 3186.84 1164.72 3184.09 1170.88C3178.12 1184.3 3176.14 1182.98 3170.76 1196.61C3167.48 1204.95 3166.12 1203.69 3147.5 1219.79C3145.44 1221.57 3144.11 1224.09 3142.75 1226.45C3127.27 1253.23 3125.68 1251.97 3101.58 1271.66C3082.02 1287.64 3051.96 1288.82 3046 1290.77C3014.47 1301.12 3014.19 1298.15 2981.7 1304.14C2944.06 1311.05 2942.83 1303.71 2906.45 1316.45C2879.57 1325.87 2877.74 1314.67 2850.59 1323.34C2819.16 1333.37 2818.77 1330.41 2786.16 1335.72C2727.69 1345.25 2726.52 1336.06 2698.61 1345.13C2672.55 1353.59 2672.57 1352.44 2645.01 1352.99C2617.71 1353.54 2591.67 1371.08 2558.93 1366.13C2535.16 1362.53 2535.09 1364.08 2515.69 1370.87C2499.12 1376.66 2468.09 1371.39 2451.94 1382.84C2430.26 1398.21 2424.43 1379.01 2394.65 1388.62C2368.23 1397.14 2368.03 1394.75 2340.51 1396.93C2332.18 1397.58 2323.1 1404.38 2308.17 1404.1C2269.93 1403.41 2270.21 1411.38 2232.11 1406.08C2204.62 1402.24 2204.62 1403.92 2179.08 1414.12C2164.67 1419.89 2152.02 1415.72 2137.07 1426.28C2126.78 1433.57 2126.08 1431.55 2113.41 1431.46C2090.18 1431.31 2092.78 1444.36 2069.68 1443.37C2050.69 1442.55 2050.4 1438.82 2027.14 1446.85C2000.87 1455.92 1999.56 1448.53 1972.85 1457.69C1951.01 1465.18 1949.74 1457.47 1927.81 1464.5C1924.59 1465.53 1921.72 1467.49 1918.5 1468.48C1909.35 1471.29 1839.38 1473.34 1830.17 1474.75C1814.36 1477.18 1800.06 1471.44 1786.72 1475.47C1728.47 1493.07 1727.93 1488.77 1667.98 1498.71C1609.64 1508.39 1597.88 1504.63 1591.43 1505.51C1559.33 1509.88 1561.8 1524.84 1472.52 1526.7C1445.38 1527.28 1439.83 1536.04 1428.72 1537.1C1401.73 1539.68 1401.77 1537.71 1374.85 1542.15C1315.33 1551.94 1304.82 1547.95 1298.37 1548.86C1239.27 1557.23 1219.51 1564.03 1212.92 1566.3C1185.81 1575.62 1184.06 1564.46 1157.02 1573.17C1110.05 1588.27 1107.03 1571.54 1060.94 1588.01C1029.37 1599.29 1027.33 1588.36 995.748 1598.84C973.829 1606.13 972.678 1598.79 950.759 1605.65C947.469 1606.68 944.549 1608.81 941.183 1609.55C924.095 1613.25 860.618 1607.38 822.078 1620.58C800.245 1628.07 799.051 1620.31 777.024 1627.4C730.167 1642.48 727.269 1626.3 680.944 1642.26C653.858 1651.58 652.11 1640.43 625.056 1649.15C588.459 1660.93 587.33 1652.05 549.278 1657.44C498.611 1664.6 499.512 1667.05 495.126 1667.5C454.914 1671.66 454.708 1669.84 451.364 1670.91C419.826 1681.02 419.598 1678.29 386.877 1678.74C351.767 1679.22 352.972 1693 310.361 1688.2C285.489 1685.4 210.124 1655.93 201.602 1652.59C195.717 1650.29 173.777 1629.27 167.99 1619.59C149.165 1588.06 147.743 1588.96 135.258 1554.12C124.738 1524.76 143.39 1518.74 118.648 1485.71C104.361 1466.65 129.884 1447.1 118.17 1411.09C106.358 1374.77 114.968 1373.06 102.928 1336.86C92.2668 1304.83 97.6624 1304.31 98.672 1270.89C98.8783 1263.85 71.8893 1202.52 100.746 1179.8C115.413 1168.25 115.423 1166.17 133.858 1168.13C114.132 1191.28 113.904 1190.88 112.557 1193.14C107.976 1200.84 115.684 1243.64 115.63 1249.29C115.065 1298.72 131.209 1297.08 128.799 1346.63C127.702 1369.31 133.586 1368.22 136.648 1390.53C139.394 1410.53 136.268 1410.56 136.669 1412.25C137.614 1416.24 141.555 1419.05 142.64 1423C143.118 1424.72 140.415 1424.67 144.019 1445.26C152.574 1494.04 149.817 1494.33 150.707 1498.53C179.107 1632.63 297.8 1650.88 333.225 1643.07C402.695 1627.76 403.4 1633.71 409.382 1632.29C436.198 1625.9 435.687 1624.14 463.132 1623.52C490.751 1622.89 507.557 1613.8 517.642 1612.94C550.016 1610.13 550.136 1612.66 581.608 1604.53C608.912 1597.48 609.868 1606.16 637.323 1599.43C684.907 1587.76 685.797 1594.67 733.587 1582.5C758.828 1576.08 760.142 1585.64 799.29 1574.31C840.696 1562.32 842.433 1573.05 885.555 1560.5C933.91 1557.05 946.047 1553.6 951.139 1552.16C980.56 1543.82 995.78 1549.73 1017.1 1544.26C1059.57 1533.35 1060.92 1542.03 1103.02 1530.14C1130.31 1522.45 1147.07 1528.07 1169.05 1522.28C1211.49 1511.11 1212.85 1519.67 1254.98 1508.25C1287.37 1499.45 1288.54 1509.06 1320.99 1500.43C1353.29 1491.84 1353.86 1498.1 1386.45 1491.83C1418.53 1485.65 1417.9 1484.02 1450.58 1482.89C1471.29 1478.8 1471.18 1478.96 1472.94 1478.48C1510.3 1468.48 1511.63 1477.94 1548.94 1467.65C1586.29 1457.36 1587.71 1467 1624.89 1456.65C1662.31 1446.22 1663.73 1456.01 1700.85 1445.65C1738.3 1435.2 1739.68 1445.17 1776.82 1434.68C1814.17 1424.13 1815.61 1434.17 1852.76 1423.66C1890.99 1412.85 1892.12 1421.98 1918.43 1415.39C1925.26 1413.68 1931.92 1411.3 1938.76 1409.64C1966.17 1403 1966.94 1411.44 1994.44 1404.49C2001.26 1402.77 2007.9 1400.37 2014.74 1398.72C2042.16 1392.12 2042.9 1400.54 2070.43 1393.53C2133.52 1377.44 2143.42 1394.84 2162.62 1365.31C2174.97 1346.3 2177.7 1349.37 2199.38 1343.91C2202.38 1345.97 2204.23 1343.85 2213.73 1353.72C2239.99 1380.98 2257.84 1362.01 2363.55 1351.65C2368.68 1351.15 2368.33 1348.94 2427.5 1342.64C2438.36 1341.49 2528.35 1325.53 2591.51 1318.99C2598.46 1318.27 2665.25 1305.76 2743.52 1297.22C2749.62 1296.56 2749.22 1294.13 2819.49 1286.3C2835.97 1284.47 2835.46 1282.88 3024.56 1256.38C3117.07 1243.42 3164.74 1148.72 3155.9 1086.4C3139.71 972.299 3139.09 972.614 3138.16 955.797C3136.04 917.333 3129.28 918.44 3127.19 879.835C3125.08 841.197 3119.05 842.152 3116.42 803.775C3116.19 800.485 3114.19 771.26 3108.93 763.237C3106.47 759.492 3104.06 763.074 3102.01 759.47C3099.4 754.921 3103.79 754.237 3101.14 749.612Z" fill="#889380" fill-opacity="0.1"/>
<path fill-rule="evenodd" clip-rule="evenodd" d="M133.858 1168.13L144.215 1168.22L148.112 1188.19C222.457 1283.5 343.017 1264.16 441.734 1411.79C446.783 1419.34 472.653 1458.02 530.116 1483.2C626.651 1525.48 766.048 1478.27 852.443 1533.63C870.454 1545.17 869.922 1545.48 885.555 1560.5C842.433 1573.05 840.696 1562.32 799.29 1574.31C760.142 1585.64 758.828 1576.08 733.587 1582.5C685.797 1594.67 684.907 1587.76 637.323 1599.43C609.868 1606.16 608.912 1597.48 581.608 1604.53C550.136 1612.66 550.016 1610.13 517.642 1612.93C507.557 1613.8 490.751 1622.89 463.132 1623.52C435.687 1624.14 436.198 1625.9 409.382 1632.29C403.4 1633.71 402.695 1627.76 333.225 1643.07C297.8 1650.88 179.107 1632.63 150.707 1498.53C149.817 1494.33 152.574 1494.04 144.019 1445.26C140.415 1424.67 143.118 1424.72 142.64 1423C141.555 1419.05 137.614 1416.24 136.669 1412.25C136.268 1410.56 139.394 1410.53 136.648 1390.53C133.586 1368.22 127.702 1369.31 128.799 1346.63C131.209 1297.08 115.065 1298.72 115.63 1249.29C115.684 1243.64 107.976 1200.84 112.557 1193.14C113.904 1190.88 114.132 1191.28 133.858 1168.13Z" fill="#F6F7EC"/>
<path fill-rule="evenodd" clip-rule="evenodd" d="M2589.74 469.777C2605.51 480.014 2607.63 477.702 2613.34 488.862C2635.38 531.973 2586.16 539.898 2610.39 566.822C2646.94 607.436 2643.13 610.161 2680.24 649.917C2704.07 675.452 2712.7 654.336 2723.85 644.261C2753.9 617.077 2776.23 609.26 2766.35 586.288C2733.27 509.327 2822.5 497.613 2842.03 542.884C2857.32 578.287 2821.72 600.227 2821.56 600.39C2790.45 631.288 2821.47 821.59 2783.46 844.127C2767.07 853.844 2484.15 889.583 2481.86 889.681C2475.76 889.931 2469.75 887.347 2463.65 887.607C2434.71 861.259 2419.22 790.692 2375.79 683.724C2367.94 664.367 2336.83 663.357 2327.62 642.763C2305.49 593.279 2365.07 563.837 2394.91 587.656C2423.78 610.693 2399.59 646.4 2420.49 659.351C2422.87 660.817 2425.74 661.349 2428.11 662.815C2492.56 696.155 2496.23 694.255 2501.86 691.334C2507.59 688.36 2547.14 594.908 2550.53 588.568C2562.5 566.117 2565.52 561.622 2545.76 545.457C2525.55 528.901 2524.38 494.91 2545.79 476.66C2564.03 461.124 2566.32 465.543 2589.74 469.777Z" fill="#FBFBF2"/>
<path fill-rule="evenodd" clip-rule="evenodd" d="M2410.62 679.198C2417.67 683.552 2484.42 724.871 2504.68 722.363C2534.1 718.716 2568.4 597.33 2580.31 587.559C2591.54 578.332 2597.53 592.173 2666.83 673.879C2707.63 721.994 2714.12 679.133 2765.05 642.297C2789.49 624.612 2780.04 656.834 2779.47 695.7C2778.09 787.686 2782.82 824.153 2743.06 828.127C2710.05 831.438 2710.73 834.315 2677.8 837.952C2667.3 839.113 2590.47 847.592 2546.91 855.713C2541.7 856.69 2494.11 865.57 2480.98 862.259C2473.21 860.294 2467.59 858.872 2435.85 772.705C2409.65 701.574 2409.02 701.856 2407.1 695.559C2402.86 681.609 2409.91 682.488 2410.62 679.198Z" fill="#8AA279"/>
<path fill-rule="evenodd" clip-rule="evenodd" d="M886.261 504.496C913.716 504.333 912.881 500.534 940.022 496.604C941.194 496.43 1062.43 489.145 1055.85 608.501C1052.92 661.719 992.425 664.422 1025.55 697.436C1075.38 747.104 1077.3 745.476 1079.96 750.98C1088.22 768.057 1078.52 767.775 1059.87 770.88C1013.73 778.545 1008.49 782.507 975.837 747.473C958.391 728.757 927.233 687.286 908.06 706.48C887.933 726.618 957.793 798.694 864.765 797.869C831.338 797.576 842.726 781.248 829.33 718.194C821.35 680.555 826.214 680.088 818.343 642.242C810.494 604.538 816.324 604.028 807.378 566.258C794.741 512.888 816.367 517.589 832.554 515.266C859.695 511.379 858.729 507.797 886.261 504.496Z" fill="#718D61"/>
<path fill-rule="evenodd" clip-rule="evenodd" d="M1190.2 461.071C1251.42 460.246 1286.42 429.24 1292.31 477.801C1295.17 501.403 1299.56 511.434 1267.02 516.374C1185.17 528.805 1184.46 527.621 1179.22 532.474C1174.49 536.86 1167.33 568.061 1189.27 570.58C1221.16 574.239 1250.06 565.771 1255.14 564.283C1284.08 555.804 1283.24 568.018 1291.49 596.766C1302.79 636.077 1262.9 621.269 1233.61 630.084C1195.4 641.592 1174.21 637.282 1188.08 674.932C1196.87 698.762 1206.48 682.184 1288.3 677.32C1300 676.625 1319.8 667.007 1324 694.875C1330.81 740.059 1312.07 735.901 1266.72 741.992C1233.83 746.399 1233.75 744.326 1201.4 750.992C1197.07 751.882 1197.01 751.144 1146.42 757.234C1115.44 760.958 1123.25 737.964 1116.56 705.981C1113.69 692.291 1114.96 692.215 1089.96 533.201C1079.64 467.498 1101.47 472.503 1114.25 471.95C1152.81 470.289 1151.87 464.882 1190.2 461.071Z" fill="#728F62"/>
<path fill-rule="evenodd" clip-rule="evenodd" d="M1483.59 417.689C1515.12 419.296 1540.04 412.706 1543.29 446.34C1547.53 490.362 1506.91 480.809 1472.23 487.561C1447.23 492.425 1420.66 492.077 1420.15 511.087C1418.44 573.577 1520.19 497.582 1537.04 543.895C1561.3 610.651 1480.95 585.388 1452.07 600.479C1425.12 614.559 1430.61 656.769 1461.38 650.635C1499.17 643.101 1500.08 650.049 1537.23 639.681C1586.99 625.807 1575.78 688.34 1569.19 694.419C1564.73 698.545 1564.23 699.001 1494.71 709.184C1486.9 710.324 1411.83 721.311 1396.89 721.669C1355.48 722.678 1376.47 698.805 1362.61 652.72C1353.57 622.669 1360.57 606.178 1354.89 586.517C1352.74 579.081 1349.59 571.937 1347.68 564.425C1345.86 557.205 1348.73 527.415 1343.91 510.555C1342.48 505.518 1328.69 457.294 1341.56 445.145C1343.55 443.245 1399.36 428.73 1407.63 428.568C1446.31 427.808 1445.59 424.985 1483.59 417.689Z" fill="#728E61"/>
<path fill-rule="evenodd" clip-rule="evenodd" d="M658.298 537.023C728.745 537.012 753.943 502.597 761.325 553.85C767.85 599.154 746.865 590.968 702.06 599.49C658.689 607.752 637.997 597.221 642.057 641.049C645.944 683.063 744.509 621.323 754.28 663.532C761.825 696.123 768.089 709.878 734.478 711.865C711.864 713.211 694.352 721.278 680.76 722.374C636.368 725.924 663.466 747.854 664.573 782.519C665.626 815.717 670.219 826.617 637.226 830.613C631.928 831.264 593.138 844.324 589.393 815.793C587.21 799.216 565.65 634.915 559.907 608.936C543.199 533.429 583.671 549.692 604.45 547.923C631.928 545.578 630.788 540.692 658.298 537.023Z" fill="#728E62"/>
<path fill-rule="evenodd" clip-rule="evenodd" d="M1621.04 862.899C1615.41 862.258 1619.36 856.298 1613.73 855.647C1613.09 855.582 1611.15 855.354 1608.06 861.411C1595.24 886.501 1646 977.314 1602.46 987.042C1570.37 994.207 1570.61 954.657 1566.86 924.107C1552.9 810.43 1536.11 787.903 1580.43 779.294C1622 771.216 1620.99 791.377 1661.98 866.329C1668.05 877.435 1676.77 901.309 1690.63 891.994C1694.36 889.486 1695.81 846.69 1713.89 783.245C1728.12 733.284 1783.99 762.227 1784.83 763.117C1791.65 770.304 1793.25 800.898 1793.43 804.252C1795.44 842.695 1802.35 841.62 1804.32 880.247C1806.43 921.491 1826.51 950.933 1799.15 959.021C1750.04 973.558 1761.93 918.342 1758.62 901.016C1746.48 837.56 1763 824.022 1743.99 824.869C1729.38 825.531 1730.65 886.946 1724.53 913.359C1713.64 960.335 1710.01 975.827 1689.91 973.428C1679.56 972.19 1670.01 971.05 1621.04 862.899Z" fill="#1F272A"/>
<path fill-rule="evenodd" clip-rule="evenodd" d="M994.825 864.376C1009.7 865.906 1018.92 860.619 1034.53 882.571C1035.52 883.961 1072.18 952.551 1073.18 955.059C1079.24 970.475 1081.33 986.695 1093.46 980.887C1112 972.017 1102.79 966.122 1106.34 946.005C1123.41 849.264 1127.62 841.523 1157.92 841.859C1159.83 841.87 1186.73 841.588 1191.41 846.767C1200.02 856.32 1219.32 1020.72 1219.34 1021.74C1219.79 1051.65 1184.24 1048.01 1179.23 1043.31C1171.89 1036.41 1166.01 993.958 1165.4 989.561C1162.37 967.729 1168.53 967.826 1165.38 945.842C1164.71 941.174 1162.18 936.136 1158.16 933.683C1130.65 916.888 1142.84 1054.47 1104.16 1058.42C1081.33 1060.76 1071.88 1030.07 1067.74 1023.2C1028.77 958.739 1029.71 929.948 1016.06 929.492C1000.86 928.982 1011.12 952.041 1029.33 1042.71C1036.82 1080.03 993.696 1076.47 984.229 1064.62C981.157 1060.77 966.24 939.969 962.473 923.576C947.687 859.317 977.911 866.732 994.825 864.376Z" fill="#20292B"/>
<path fill-rule="evenodd" clip-rule="evenodd" d="M625.761 918.526C665.984 912.914 665.713 912.859 669.197 912.458C726.932 905.911 778.587 975.903 730.59 1029.21C700.051 1063.13 786.436 1083.76 766.102 1107.19C763.225 1110.49 737.365 1112.16 734.835 1112.32C686.383 1115.44 676.45 1054.3 645.704 1060.24C620.539 1065.1 667.884 1122.45 614.894 1129.48C577.472 1134.45 589.729 1086.64 570.762 988.876C557.149 918.776 582.835 920.6 625.761 918.526Z" fill="#1F282B"/>
<path fill-rule="evenodd" clip-rule="evenodd" d="M397.701 951.205C428.36 947.112 428.24 947.492 430.813 946.786C539.79 917.072 551.07 1013.75 538.758 1042.94C513.615 1102.54 440.432 1066.29 446.718 1119.54C453.112 1173.72 397.668 1162.75 392.164 1139.73C387.007 1118.15 371.83 1000.28 370.267 988.127C364.437 942.867 387.952 952.899 397.701 951.205Z" fill="#1D2629"/>
<path fill-rule="evenodd" clip-rule="evenodd" d="M1429.3 1016.26C1413.33 1013.24 1339.89 1013.07 1336.66 923.446C1335.72 897.293 1329.23 890.605 1326.81 869.848C1321.38 823.328 1338.15 816.847 1342.38 815.207C1389.64 796.925 1376.3 830.33 1387.02 879.879C1391.99 902.808 1390.18 978.694 1440.59 969.868C1521.06 955.776 1435.07 811.483 1474.56 798.38C1488.38 793.798 1516.45 778.448 1520.32 847.342C1524.12 915.217 1539.67 918.169 1526.03 955.841C1505.29 1013.11 1433.49 1015.66 1429.3 1016.26Z" fill="#1D2629"/>
<path fill-rule="evenodd" clip-rule="evenodd" d="M864.645 929.655C836.408 930.925 821.556 929.969 832.228 956.101C842.303 980.767 912.435 942.824 918.884 977.901C927.667 1025.73 829.221 983.274 842.39 1032.31C850.782 1063.6 926.375 1039.99 929.512 1039.61C953.939 1036.62 952.387 1068.55 949.39 1074.22C945.363 1081.85 911.686 1087.21 908.266 1087.76C810.179 1103.38 808.018 1100.8 802.579 1094.29C795.295 1085.59 798.28 1084.42 791.962 1042.45C778.142 950.564 770.216 909.06 777.534 901.656C781.854 897.281 831.305 885.979 843.03 885.35C907.148 881.908 917.549 866.09 926.44 891.972C938.729 927.733 866.404 929.448 864.645 929.655Z" fill="#1E2729"/>
<path fill-rule="evenodd" clip-rule="evenodd" d="M2991.14 56.7891C2994.72 59.6552 2995.88 56.4742 2999.49 59.3729C3002.73 61.9676 2999.87 63.6503 3002.99 66.2776C3005.14 68.1014 3008.7 67.3958 3010.96 69.0786C3017.62 74.0616 3029 93.8746 3030.34 96.187C3042.64 117.596 3035.87 119.821 3044.73 142.75C3060.53 183.635 3044.32 190.355 3055.57 218.767C3071.81 259.739 3053.89 269.651 3067.73 294.447C3082.28 320.513 3075.04 321.902 3072.9 337.286C3072.56 339.805 3069.36 362.723 3072.42 369.03C3074.46 373.264 3078.8 376.065 3080.97 380.234C3084.12 386.303 3083.72 420.609 3083.68 424.126C3083.36 451.81 3118.09 493.879 3076.86 529.889C3049.17 554.067 3022.41 542.483 3019.39 630.463C3017.62 681.836 3040.01 676.939 3047.12 727.878C3044.56 726.086 3040.5 727.78 3037.94 725.989C3035.73 724.447 3036.27 720.55 3034.19 718.845C3027.88 713.667 3026.53 715.957 3020.91 709.878C3001.57 688.892 2944.73 593.15 3043.59 507.428C3066.16 487.853 3067.83 484.629 3063.53 435.363C3060.19 397.04 3056.04 398.028 3052.52 359.39C3050.91 341.922 3047.74 342.703 3020.22 142.479C3015.13 105.48 3006.41 94.7865 3003.98 87.3282C3002.95 84.1472 3004.03 80.3475 3002.43 77.4162C3001.38 75.4729 2997.81 75.9615 2996.76 74.0182C2994.88 68.2751 2993.01 62.5321 2991.14 56.7891Z" fill="#829478" fill-opacity="0.06"/>
<path fill-rule="evenodd" clip-rule="evenodd" d="M30.1356 662.805C37.1923 697.925 40.1127 697.1 41.0137 727.9C41.1874 733.654 62.7374 877.121 62.846 879.857C64.4961 922.056 76.8399 917.55 116.433 932.206C151.521 945.191 192.395 990.766 197.976 1032.86C209.592 1120.33 173.31 1144.56 144.215 1168.22L133.858 1168.13C140.448 1154.04 141.935 1155.24 150.435 1142.16C174.461 1105.19 176.664 987.248 105.327 973.537C49.7748 962.865 59.7302 946.45 37.8762 880.856C31.6881 862.259 36.0415 840.861 30.8413 825.032C13.8184 773.16 30.6893 770.598 20.202 738.094C11.8426 712.18 13.2756 712.082 12.2334 684.648C18.1936 677.363 24.1646 670.089 30.1356 662.805Z" fill="#D4D4CE" fill-opacity="0.05"/>
<path fill-rule="evenodd" clip-rule="evenodd" d="M1249.47 945.266C1246.23 901.417 1239.77 902.448 1238.33 858.176C1236.89 813.491 1282.49 828.419 1283.8 829.852C1288.78 835.28 1315.47 1010.38 1310.87 1021.91C1310.26 1023.41 1264.11 1058.34 1260.01 1009.94C1257.22 976.978 1251.86 978.009 1249.47 945.266Z" fill="#1E2729"/>
<path fill-rule="evenodd" clip-rule="evenodd" d="M2471.19 913.913C2511.16 919.928 2510.67 911.59 2546.78 908.366C2601.82 903.448 2601.17 900.495 2656.42 895.11C2662.53 894.513 2661.96 891.158 2732.41 884.254C2753 882.234 2801.44 862.476 2807.88 869.369C2812.05 873.842 2824.98 898.28 2742.25 908.431C2525.92 934.975 2451.61 960.194 2454.34 923.771C2454.85 916.964 2460.16 913.848 2461.01 913.349C2465.88 910.504 2466.45 916.682 2471.19 913.913Z" fill="#FCFCF3"/>
<path fill-rule="evenodd" clip-rule="evenodd" d="M1715.86 384.521C1716.37 384.608 1722.26 385.564 1722.26 385.564C1734.99 382.187 1727.46 399.536 1743.55 424.603C1759.6 449.638 1802.38 443.721 1802.32 456.543C1802.28 465.771 1782.25 467.454 1768.95 481.295C1735.19 516.449 1767.26 556.031 1744 555.89C1726.48 555.781 1744.35 520.607 1708.81 493.107C1698.25 484.954 1652.09 481.133 1673.77 464.805C1711.81 436.144 1706.76 430.998 1715.86 384.521Z" fill="#87A076"/>
<path fill-rule="evenodd" clip-rule="evenodd" d="M1669.83 1173.34C1669.93 1171.96 1667.21 1158.14 1674.53 1147.6C1684.58 1133.15 1690.52 1138.76 1697.98 1154.44C1706.16 1171.6 1698.79 1172.64 1699.96 1173.65C1707.74 1180.37 1705.8 1171.51 1712.23 1163.74C1723.66 1149.9 1710.97 1139.14 1726.92 1099.61C1733.89 1082.34 1763.86 1085.37 1755.22 1119.11C1749.59 1141.09 1744.99 1139.14 1745.26 1141.05C1747.16 1154.52 1752.63 1149.17 1766.24 1149.92C1771.75 1150.23 1800.09 1168.89 1754.02 1180.54C1716.12 1190.11 1715.67 1187.84 1712.53 1189.11C1709 1190.54 1710.28 1204.68 1710.41 1206.04C1713.43 1239.07 1690.62 1216.85 1657.1 1230.3C1629.91 1241.21 1645.3 1219.54 1645.97 1216.74C1647.76 1209.39 1634.19 1187.85 1657.65 1185.16C1661.84 1184.68 1666.12 1185.19 1670.31 1184.71C1673.91 1186.69 1672.66 1193.55 1676.27 1195.53C1680.53 1197.86 1691.68 1200.75 1690.83 1195.97C1690.55 1194.44 1687.13 1199.06 1674.46 1185.4C1669.89 1180.47 1674.55 1178.43 1669.83 1173.34Z" fill="#9EB18C"/>
<path fill-rule="evenodd" clip-rule="evenodd" d="M502.573 1319.11C498.882 1317.17 467.442 1300.7 478.45 1272.95C484.486 1257.72 517.305 1276.48 525.328 1315.79C528.259 1330.18 524.395 1335.81 538.92 1336.71C542.926 1336.95 548.442 1339.29 550.96 1336.15C553.305 1333.22 549.625 1328.67 548.127 1325.22C545.51 1319.19 544.207 1319.23 546.976 1312.97C553.37 1298.52 557.68 1295.09 569.058 1306.09C578.145 1314.87 571.88 1334.57 592.269 1339.49C600.313 1341.43 609.878 1338.71 611.376 1358.43C613.037 1380.16 604.591 1376.79 583.139 1381.92C565.692 1386.09 562.685 1392.82 551.101 1378.76C549.049 1376.26 549.484 1372.3 547.486 1369.76C536.337 1355.46 471.795 1370.21 471.86 1347.02C471.893 1334.57 490.501 1332.04 492.542 1331.75C502.617 1330.39 508.533 1335.4 507.426 1325.29C507.133 1322.69 502.866 1321.71 502.573 1319.11Z" fill="#9BAF8A"/>
<path fill-rule="evenodd" clip-rule="evenodd" d="M1045.25 1250.36C1043.2 1232.19 1039.87 1232.32 1044.59 1214.75C1051.21 1190.08 1127.53 1153.05 1135.64 1238.41C1138.8 1271.58 1101.1 1284.05 1081.76 1281.97C1055.06 1279.1 1055.08 1275.18 1045.25 1250.36Z" fill="#F9FAF4"/>
<path fill-rule="evenodd" clip-rule="evenodd" d="M2621.29 709.346C2653.66 741.297 2664.83 748.549 2631.62 802.624C2629.28 806.457 2612.27 834.162 2578.86 783.322C2570.11 770.001 2560.89 756.886 2588.92 716.088C2603.37 695.059 2620.85 709.259 2621.29 709.346Z" fill="#F9F9F0"/>
<path fill-rule="evenodd" clip-rule="evenodd" d="M892.775 619.858C888.139 589.221 886.652 589.72 886.348 587.06C883.2 558.584 937.677 560.81 941.043 561.081C984.262 564.62 1000.21 623.69 939.523 636.283C926.408 639.008 896.054 652.698 891.668 630.236C891.005 626.816 893.437 623.277 892.775 619.858Z" fill="#FEFDF6"/>
<path fill-rule="evenodd" clip-rule="evenodd" d="M349.683 821.515C347.306 821.483 345.905 825.163 343.528 825.131C336.026 825.055 332.693 801.778 328.958 797.577C311.849 778.263 256.774 777.351 301.079 761.859C332.552 750.851 314.78 705.591 332.66 705.732C347.382 705.862 338.045 729.236 358.01 745.141C371.309 755.726 393.152 745.379 392.826 760.958C392.685 767.798 392.403 768.124 386.063 770.545C367.64 777.558 361.973 776.874 349.683 821.515Z" fill="#859E75" fill-opacity="0.99"/>
<path fill-rule="evenodd" clip-rule="evenodd" d="M1347.47 1165.18C1354.62 1153.85 1359.03 1148.87 1365.73 1160.6C1376.51 1179.48 1378.79 1185.33 1398 1175.47C1407.18 1170.74 1399.77 1138.45 1417.41 1143.49C1426.51 1146.1 1421.89 1149.82 1433.37 1194.13C1445.09 1239.36 1420.66 1229.17 1418.64 1227.11C1413.02 1221.38 1412.83 1211.79 1407.56 1205.74C1406.79 1204.88 1374.73 1194.23 1374.51 1216.66C1374.05 1260.97 1353.3 1229.66 1352.73 1227.79C1351.41 1223.57 1352.49 1223.79 1346.43 1172.88L1347.47 1165.18Z" fill="#F7F8F2"/>
<path fill-rule="evenodd" clip-rule="evenodd" d="M1216.13 1216.89C1208.92 1177.35 1210.08 1176.21 1212.52 1173.77C1236.86 1149.47 1264.82 1264.14 1201.15 1267.6C1142.77 1270.78 1149.75 1186.23 1156.36 1182.33C1172.94 1172.52 1175.05 1203.74 1175.22 1206.16C1178.47 1254.21 1210.79 1245.41 1215.23 1228.47C1216.21 1224.72 1215.16 1220.64 1216.13 1216.89Z" fill="#F7F8F1"/>
<path fill-rule="evenodd" clip-rule="evenodd" d="M406.636 661.86C403.325 665.074 400.013 668.287 396.691 671.49L387.214 673.509C385.683 671.837 385.857 668.505 376.813 662.154C355.654 647.28 351.333 652.003 346.079 648.996C332.975 641.505 341.356 636.75 355.079 631.158C373.014 623.863 369.963 597.037 386.953 597.905C397.126 598.426 395.399 604.083 404.855 613.115C421.77 629.27 437.816 613.104 437.392 630.724C437.218 638.02 436.98 638.345 430.259 641.212C409.6 650.027 412.325 654.608 406.636 661.86Z" fill="#859F75"/>
<path fill-rule="evenodd" clip-rule="evenodd" d="M659.112 1015.46C652.446 1014.74 632.047 1026.86 623.666 989.214C613.059 941.554 688.826 949.425 694.374 977.12C697.967 995.011 688.099 1003.72 686.34 1005.26C679.663 1011.15 678.947 1009.52 659.112 1015.46Z" fill="#FDFDF6"/>
<path fill-rule="evenodd" clip-rule="evenodd" d="M1319.4 1155.73C1322.6 1160.53 1325.81 1165.31 1329.03 1170.11C1306.1 1186.3 1305.73 1188.53 1306.54 1216.64C1307.19 1238.89 1309.98 1239.7 1304.85 1245.26C1282.74 1269.25 1283.64 1189.25 1276.67 1184.62C1267.68 1178.64 1265.06 1188.56 1256.53 1181.76C1254.09 1179.81 1248.9 1163.68 1265.89 1161.2C1266.63 1161.09 1266.63 1161.1 1319.4 1155.73Z" fill="#F8F9F3"/>
<path fill-rule="evenodd" clip-rule="evenodd" d="M1829.87 599.088L1828.95 608.87C1829.26 612.474 1837.18 611.964 1837.5 615.568C1837.6 616.741 1833.93 611.411 1824.61 622.745C1816.02 633.188 1815.29 695.797 1797.31 642.297C1792.09 626.74 1781.1 628.716 1777.85 627.141C1775.14 624.113 1772.41 621.094 1769.69 618.076C1770.46 615.221 1766.15 612.507 1766.93 609.652C1767.4 607.915 1770.85 611.888 1784.15 595.202C1787.01 591.619 1793.67 553.242 1804.88 569.896C1807.84 574.303 1808.48 579.959 1811.17 584.541C1815.4 591.76 1816.65 590.371 1829.87 599.088Z" fill="#87A177"/>
<path fill-rule="evenodd" clip-rule="evenodd" d="M451.43 1047.39C445.144 1041.63 433.994 1047.71 429.966 1010.48C429.749 1008.49 428.11 993.285 440.888 988.03C484.52 970.106 505.386 1019.03 480.915 1038.49C472.404 1045.27 471.644 1043.1 451.43 1047.39Z" fill="#FDFDF6"/>
<path fill-rule="evenodd" clip-rule="evenodd" d="M950.162 1228.27C957.067 1238.01 956.317 1238.15 963.157 1247.6C983.534 1262.17 986.39 1263.76 981.515 1288.39C974.98 1286.39 968.433 1284.39 961.898 1282.38C950.357 1262.24 952.333 1260.28 950.368 1260.49C927.841 1263.02 938.589 1273.31 943.55 1295.19C940.207 1296.61 942.497 1298.7 938.947 1300.21C938.339 1300.47 935.289 1301.78 930.642 1300.69C920.394 1298.32 916.322 1254.47 915.932 1250.29C936.809 1244.93 937.894 1245.52 950.162 1228.27Z" fill="#EDF1E7"/>
<path fill-rule="evenodd" clip-rule="evenodd" d="M825.443 1292.51C824.661 1288.6 826.398 1267.19 810.168 1260.47C786.273 1250.57 796.977 1237.23 821.991 1230.79C840.208 1226.1 849.512 1281.04 849.631 1282.06C853.246 1312.73 832.5 1324.05 825.682 1303C824.607 1299.67 826.518 1295.84 825.443 1292.51Z" fill="#FBFBF5"/>
<path fill-rule="evenodd" clip-rule="evenodd" d="M3.21174 576.376L22.7533 587.059C24.512 625.252 28.5614 624.557 30.1356 662.804C24.1646 670.088 18.1936 677.362 12.2334 684.647C8.37938 663.965 8.88964 663.944 8.07541 662.326C6.04526 658.255 2.63636 654.944 0.779912 650.786C-0.696559 647.475 0.0633817 647.703 1.88726 630.213C1.88726 630.213 3.10317 580.686 3.21174 576.376Z" fill="#C9C9C4" fill-opacity="0.05"/>
<path fill-rule="evenodd" clip-rule="evenodd" d="M978.247 1228.61C986.27 1210.38 985.662 1210.12 986.911 1208.94C1018.08 1179.34 1033.98 1288.3 1014.43 1287.83C1010.92 1287.74 1008.22 1283.91 1004.73 1283.82C1004.42 1280.15 1001.13 1240.69 994.608 1238.92C989.863 1237.63 984.023 1242 979.865 1239.39C976.792 1237.46 981.319 1230.55 978.247 1228.61Z" fill="#F4F6EF"/>
<path fill-rule="evenodd" clip-rule="evenodd" d="M2884.95 654C2886.55 652.903 2902.65 641.895 2905.19 640.57C2937.39 623.819 2933.28 652.567 2924.16 658.614C2914.1 665.301 2913.97 664.411 2903.97 671.457C2900.99 673.552 2851.8 708.227 2858.62 672.618C2859.41 668.449 2882.7 655.27 2884.95 654Z" fill="#F7F8EE"/>
<path fill-rule="evenodd" clip-rule="evenodd" d="M2873.49 775.548C2877.77 775.939 2915.79 779.424 2926.52 783.929C2927.97 784.537 2941.42 790.193 2934.56 801.875C2928.75 811.776 2858.61 799.139 2855.93 791.279C2851.14 777.242 2859.5 780.14 2873.49 775.548Z" fill="#F6F7ED"/>
<path fill-rule="evenodd" clip-rule="evenodd" d="M2265.82 756.929C2247.27 748.808 2246.69 749.677 2245.81 748.168C2229.5 720.201 2284.24 736.302 2287.54 737.268C2312.35 744.563 2327.37 736.866 2321.72 762.389C2319.52 772.28 2291.61 764.55 2265.82 756.929Z" fill="#F6F7EF"/>
<path fill-rule="evenodd" clip-rule="evenodd" d="M1067.58 1238.91C1068.15 1235.88 1063 1218.29 1083.2 1210.48C1112.1 1199.27 1124.49 1256.39 1092.4 1258.88C1068.29 1260.73 1070.36 1244.96 1067.58 1238.91Z" fill="#8FA67C"/>
<path fill-rule="evenodd" clip-rule="evenodd" d="M2350.25 875.883C2324.39 889.367 2302.14 901.233 2295.5 892.591C2285.35 879.379 2294.85 879.118 2308.88 869.934C2312.93 867.285 2367.06 831.871 2368.09 857.601C2368.67 872.105 2363.02 869.119 2350.25 875.883Z" fill="#F7F8F0" fill-opacity="0.99"/>
<path fill-rule="evenodd" clip-rule="evenodd" d="M2047.79 118.778C2046.4 121.612 2047.23 125.205 2045.84 128.028C2041.83 136.235 2037.58 140.513 2036.67 141.447C2031.71 146.462 2030.12 143.911 2024.99 149.1C2019.88 150.783 2020.47 151.489 2015.5 153.117C2001.54 157.709 1995.08 153.834 1993.15 153.899C1991.24 151.608 1987.57 151.282 1985.64 148.992C1984.39 147.483 1984.66 147.472 1972.23 128.375C1994.08 126.964 1993.7 129.884 2015.39 130.471C2022.18 130.655 2030.62 120.982 2036.82 119.462C2040.38 118.594 2044.23 119.658 2047.79 118.778Z" fill="#BFC7B6" fill-opacity="0.05"/>
<path fill-rule="evenodd" clip-rule="evenodd" d="M1993.15 153.9C1995.08 153.835 2001.54 157.711 2015.5 153.118C2020.47 151.49 2019.88 150.784 2024.99 149.102L2042.45 163.736L2021.82 174.516C2026.12 194.004 2027.71 194.199 2026.41 195.296C2023.45 197.793 2018.77 193.797 2015.2 192.31C2001.25 186.545 2006.06 182.377 2003.5 176.102C2002.6 173.887 1999.19 173.561 1998.01 171.488C1998.01 171.488 1993.54 155.311 1993.15 153.9Z" fill="#C4CEBB" fill-opacity="0.94"/>
<path fill-rule="evenodd" clip-rule="evenodd" d="M978.247 1228.61C981.319 1230.55 976.792 1237.46 979.864 1239.39C984.022 1242 989.863 1237.63 994.607 1238.92C1001.13 1240.69 1004.42 1280.15 1004.73 1283.82C996.985 1285.34 989.244 1286.87 981.514 1288.39C986.389 1263.76 983.534 1262.16 963.156 1247.6C966.218 1245.65 970.539 1252.6 973.589 1250.66C973.589 1250.66 977.878 1230.38 978.247 1228.61Z" fill="#ABBC9D"/>
<path fill-rule="evenodd" clip-rule="evenodd" d="M2089.43 793.841C2087.09 782.149 2085.19 783.05 2082.86 771.51C2082.71 770.739 2081.48 764.551 2082.98 761.707C2091.14 746.388 2105.73 764.996 2108.9 785.069C2114.7 821.818 2093.84 804.926 2092.61 803.395C2090.52 800.768 2091.53 796.458 2089.43 793.841Z" fill="#B0C0A3"/>
<path fill-rule="evenodd" clip-rule="evenodd" d="M2113.1 967.033C2114.92 964.124 2112.8 959.76 2114.62 956.861C2131.91 929.307 2137.31 995.086 2134.05 999.146C2114.92 1023.04 2113.2 970.095 2113.1 967.033Z" fill="#9AB08C" fill-opacity="0.99"/>
<path fill-rule="evenodd" clip-rule="evenodd" d="M2167.31 1256.01C2169.06 1259 2172.6 1260.66 2174.36 1263.63C2176.76 1267.68 2180.72 1307.95 2176.53 1309.25C2158.05 1314.97 2156.73 1284.57 2156.62 1281.86C2155.55 1257.17 2164.06 1260.56 2167.31 1256.01Z" fill="#A9BA9C"/>
<path fill-rule="evenodd" clip-rule="evenodd" d="M2091.28 706.273C2089.06 705.48 2083.96 712.743 2076.32 700.975C2059.59 675.223 2075.91 638.246 2088.57 664.226C2090.96 669.122 2090 669.252 2091.28 706.273Z" fill="#AEBFA2"/>
<path fill-rule="evenodd" clip-rule="evenodd" d="M950.161 1228.27C937.893 1245.52 936.808 1244.92 915.931 1250.29C914.813 1228.49 914.368 1228.6 914.726 1226.74C917.353 1213.17 934.039 1210.71 941.118 1216.09C945.145 1219.14 946.133 1225.21 950.161 1228.27Z" fill="#F5F6EF"/>
<path fill-rule="evenodd" clip-rule="evenodd" d="M2067.03 496.441C2065.07 496.734 2054.77 515.418 2045.83 490.079C2044.95 487.582 2023.55 426.905 2057.11 458.943C2063.77 465.283 2066.7 493.347 2067.03 496.441Z" fill="#B7C7AC"/>
<path fill-rule="evenodd" clip-rule="evenodd" d="M2362.09 606.591C2366.09 607.6 2370.45 605.787 2374.45 606.797C2382.74 608.903 2387.26 624.004 2383.62 629.91C2369.86 652.177 2337.52 628.597 2354.39 611.194C2356.48 609.044 2360.01 608.74 2362.09 606.591Z" fill="#8CA57D"/>
<path fill-rule="evenodd" clip-rule="evenodd" d="M2796.43 578.189C2784.12 563.555 2775.69 560.786 2789.54 547.444C2796.8 540.442 2814.86 542.721 2817.44 554.978C2821.35 573.402 2814.45 572.24 2796.43 578.189Z" fill="#87A078"/>
<path fill-rule="evenodd" clip-rule="evenodd" d="M2567.97 496.907C2572.21 497.841 2576.73 495.778 2580.96 496.712C2588.92 498.449 2596.5 510.782 2588.99 520.205C2576.2 536.229 2546.3 517.914 2559.94 501.825C2561.97 499.437 2565.94 499.306 2567.97 496.907Z" fill="#87A178"/>
<path fill-rule="evenodd" clip-rule="evenodd" d="M2155.05 1102.95C2142.69 1103.59 2139.01 1109.06 2134.3 1097.61C2119.45 1061.56 2130.75 1060.93 2133.68 1060.94C2136.32 1060.96 2148.51 1059.78 2155.05 1102.95Z" fill="#ABBD9D"/>
<path fill-rule="evenodd" clip-rule="evenodd" d="M2026.23 369.931C2029.52 352.246 2028.71 351.986 2029.78 350.846C2031.67 348.826 2047.02 340.435 2047.33 380.733C2047.43 393.414 2048.05 397.355 2035.66 397.04C2029.4 396.877 2026.5 372.211 2026.23 369.931Z" fill="#A7BA99"/>
<path fill-rule="evenodd" clip-rule="evenodd" d="M2149.74 1202.67C2139.18 1156.29 2153.55 1157.9 2157.01 1158.74C2169.9 1161.84 2165.34 1190.76 2164.9 1193.58C2163.29 1203.8 2159.91 1201.25 2149.74 1202.67Z" fill="#94AA83"/>
<path fill-rule="evenodd" clip-rule="evenodd" d="M2101.81 880.128C2102.71 876.719 2101.99 873.006 2102.88 869.597C2104.92 861.846 2119.3 854.42 2121.67 880.356C2125.15 918.462 2105.39 902.709 2104.12 900.951C2104.12 900.951 2101.99 881.8 2101.81 880.128Z" fill="#95AB85"/>
<path fill-rule="evenodd" clip-rule="evenodd" d="M2058.3 576.236C2061.86 559.061 2061 558.703 2062.14 557.704C2082.28 540.062 2082.3 621.507 2061.67 596.059C2061.67 596.059 2058.57 577.821 2058.3 576.236Z" fill="#9AAF89"/>
<path fill-rule="evenodd" clip-rule="evenodd" d="M2623.54 749.841C2622.99 753.51 2624.72 757.278 2624.18 760.947C2621.13 781.509 2591.72 775.419 2599.48 748.647C2601.41 742.024 2612.72 736.347 2619.65 743.012C2621.54 744.836 2621.66 748.028 2623.54 749.841Z" fill="#88A279"/>
<path fill-rule="evenodd" clip-rule="evenodd" d="M2014.76 272.31C2016.43 252.975 2015.41 252.671 2016.58 251.466C2026.63 240.902 2029.06 249.034 2033.61 262.919C2038.67 278.379 2027.25 295.749 2020.01 289.8C2020.01 289.8 2015.18 273.71 2014.76 272.31Z" fill="#A2B794"/>
<path fill-rule="evenodd" clip-rule="evenodd" d="M961.897 1282.38C955.785 1286.65 949.673 1290.92 943.55 1295.19C938.588 1273.31 927.841 1263.02 950.368 1260.49C952.333 1260.28 950.357 1262.24 961.897 1282.38Z" fill="#9AAE8A" fill-opacity="0.99"/>
<path fill-rule="evenodd" clip-rule="evenodd" d="M2708.84 554.489C2707.03 556.606 2707.75 560.21 2705.92 562.317C2693.67 576.549 2677.56 542.558 2699.48 542.971C2703.95 543.047 2705.98 545.543 2706.36 546.01C2709.32 549.658 2705.9 550.874 2708.84 554.489Z" fill="#ECF0E7"/>
<path fill-rule="evenodd" clip-rule="evenodd" d="M1319.4 1155.73C1328.76 1158.88 1338.11 1162.03 1347.47 1165.18L1346.43 1172.88L1329.03 1170.11C1325.81 1165.31 1322.6 1160.53 1319.4 1155.73Z" fill="#A6B999"/>
<path fill-rule="evenodd" clip-rule="evenodd" d="M2883.98 0C2898.77 1.70446 2898.43 1.27022 2912.92 5.77562C2910.51 6.06875 2908.95 8.9891 2906.54 9.28222C2900.79 9.97703 2896.48 8.20747 2895.66 7.87092C2889.09 5.16767 2890.79 2.80095 2883.98 0Z" fill="#809174" fill-opacity="0.22"/>
<path fill-rule="evenodd" clip-rule="evenodd" d="M1669.83 1173.34C1674.56 1178.43 1669.89 1180.47 1674.46 1185.4C1687.13 1199.06 1690.55 1194.44 1690.83 1195.97C1691.68 1200.75 1680.53 1197.86 1676.27 1195.53C1672.66 1193.55 1673.92 1186.69 1670.31 1184.72L1669.83 1173.34Z" fill="#B8C6A9"/>
</svg>
