<svg width="24" height="24" viewBox="0 0 24 24" fill="none" xmlns="http://www.w3.org/2000/svg">
<path fill-rule="evenodd" clip-rule="evenodd" d="M9.44716 2.10554C9.94114 2.35253 10.1414 2.9532 9.89438 3.44718L8.10552 7.02489C7.85853 7.51887 7.25786 7.71909 6.76388 7.4721C6.2699 7.22511 6.06968 6.62444 6.31667 6.13046L8.10552 2.55275C8.35251 2.05877 8.95318 1.85855 9.44716 2.10554Z" fill="white"/>
<path fill-rule="evenodd" clip-rule="evenodd" d="M14.5528 2.10552C15.0467 1.85853 15.6474 2.05876 15.8944 2.55273L17.6832 6.13044C17.9302 6.62442 17.73 7.22509 17.236 7.47208C16.7421 7.71907 16.1414 7.51885 15.8944 7.02487L14.1055 3.44716C13.8585 2.95318 14.0588 2.35251 14.5528 2.10552Z" fill="white"/>
<path fill-rule="evenodd" clip-rule="evenodd" d="M6.45925 6C4.02505 6 2.1552 8.15595 2.49945 10.5657L3.51965 17.7071C3.87155 20.1704 5.98115 22 8.4694 22H15.531C18.0193 22 20.1289 20.1704 20.4808 17.7071L21.501 10.5657C21.8452 8.15595 19.9754 6 17.5412 6H6.45925ZM12 10C12.5523 10 13 10.4477 13 11V13H15C15.5523 13 16 13.4477 16 14C16 14.5523 15.5523 15 15 15H13V17C13 17.5523 12.5523 18 12 18C11.4477 18 11 17.5523 11 17V15H9C8.44772 15 8 14.5523 8 14C8 13.4477 8.44772 13 9 13H11V11C11 10.4477 11.4477 10 12 10Z" fill="white"/>
</svg>
