<svg width="24" height="24" viewBox="0 0 24 24" fill="none" xmlns="http://www.w3.org/2000/svg">
<path fill-rule="evenodd" clip-rule="evenodd" d="M9.44716 2.10554C9.94114 2.35253 10.1414 2.9532 9.89438 3.44718L8.10552 7.02489C7.85853 7.51887 7.25786 7.71909 6.76388 7.4721C6.2699 7.22511 6.06968 6.62444 6.31667 6.13046L8.10552 2.55275C8.35251 2.05877 8.95318 1.85855 9.44716 2.10554Z" fill="black"/>
<path fill-rule="evenodd" clip-rule="evenodd" d="M14.5528 2.10552C15.0467 1.85853 15.6474 2.05876 15.8944 2.55273L17.6832 6.13044C17.9302 6.62442 17.73 7.22509 17.236 7.47208C16.7421 7.71907 16.1414 7.51885 15.8944 7.02487L14.1055 3.44716C13.8585 2.95318 14.0588 2.35251 14.5528 2.10552Z" fill="black"/>
<path fill-rule="evenodd" clip-rule="evenodd" d="M6.45925 6C4.02505 6 2.1552 8.15595 2.49945 10.5657L3.51965 17.7071C3.87155 20.1704 5.98115 22 8.4694 22H15.531C18.0193 22 20.1289 20.1704 20.4808 17.7071L21.501 10.5657C21.8452 8.15595 19.9754 6 17.5412 6H6.45925ZM15.6839 11.2705C16.0868 11.6482 16.1072 12.281 15.7295 12.6839L11.9795 16.6839C11.6213 17.0661 11.0289 17.107 10.6215 16.7778L8.37145 14.9596C7.94189 14.6125 7.87506 13.9829 8.22218 13.5533C8.5693 13.1237 9.19893 13.0569 9.62849 13.404L11.1559 14.6383L14.2704 11.3161C14.6482 10.9131 15.281 10.8927 15.6839 11.2705Z" fill="black"/>
</svg>
