<svg width="24" height="24" viewBox="0 0 24 24" fill="none" xmlns="http://www.w3.org/2000/svg">
<path fill-rule="evenodd" clip-rule="evenodd" d="M9.44716 2.10554C9.94114 2.35253 10.1414 2.9532 9.89438 3.44718L8.10552 7.02489C7.85853 7.51887 7.25786 7.71909 6.76388 7.4721C6.2699 7.22511 6.06968 6.62444 6.31667 6.13046L8.10552 2.55275C8.35251 2.05877 8.95318 1.85855 9.44716 2.10554Z" fill="black"/>
<path fill-rule="evenodd" clip-rule="evenodd" d="M14.5528 2.10552C15.0467 1.85853 15.6474 2.05876 15.8944 2.55273L17.6832 6.13044C17.9302 6.62442 17.73 7.22509 17.236 7.47208C16.7421 7.71907 16.1414 7.51885 15.8944 7.02487L14.1055 3.44716C13.8585 2.95318 14.0588 2.35251 14.5528 2.10552Z" fill="black"/>
<path fill-rule="evenodd" clip-rule="evenodd" d="M6.45925 6C4.02505 6 2.1552 8.15595 2.49945 10.5657L3.51965 17.7071C3.87155 20.1704 5.98115 22 8.4694 22H15.531C18.0193 22 20.1289 20.1704 20.4808 17.7071L21.501 10.5657C21.8452 8.15595 19.9754 6 17.5412 6H6.45925ZM8.79289 11.2929C9.18342 10.9024 9.81658 10.9024 10.2071 11.2929L12 13.0858L13.7929 11.2929C14.1834 10.9024 14.8166 10.9024 15.2071 11.2929C15.5976 11.6834 15.5976 12.3166 15.2071 12.7071L13.4142 14.5L15.2071 16.2929C15.5976 16.6834 15.5976 17.3166 15.2071 17.7071C14.8166 18.0976 14.1834 18.0976 13.7929 17.7071L12 15.9142L10.2071 17.7071C9.81658 18.0976 9.18342 18.0976 8.79289 17.7071C8.40237 17.3166 8.40237 16.6834 8.79289 16.2929L10.5858 14.5L8.79289 12.7071C8.40237 12.3166 8.40237 11.6834 8.79289 11.2929Z" fill="black"/>
</svg>
