<svg width="24" height="24" viewBox="0 0 24 24" fill="none" xmlns="http://www.w3.org/2000/svg">
<path fill-rule="evenodd" clip-rule="evenodd" d="M8 2C8.55228 2 9 2.44772 9 3V6C9 6.55228 8.55228 7 8 7C7.44772 7 7 6.55228 7 6V3C7 2.44772 7.44772 2 8 2Z" fill="black"/>
<path fill-rule="evenodd" clip-rule="evenodd" d="M16 2C16.5523 2 17 2.44772 17 3V6C17 6.55228 16.5523 7 16 7C15.4477 7 15 6.55228 15 6V3C15 2.44772 15.4477 2 16 2Z" fill="black"/>
<path d="M17 3C19.7614 3 22 5.23858 22 8V17C22 19.7614 19.7614 22 17 22H7C4.23858 22 2 19.7614 2 17V8C2 5.23858 4.23858 3 7 3H17ZM9 12C8.44772 12 8 12.4477 8 13C8 13.5523 8.44772 14 9 14H15C15.5523 14 16 13.5523 16 13C16 12.4477 15.5523 12 15 12H9Z" fill="black"/>
</svg>
