<svg width="24" height="24" viewBox="0 0 24 24" fill="none" xmlns="http://www.w3.org/2000/svg">
<path d="M13.71 2C15.508 2.00005 17.1043 3.15066 17.6729 4.85645C17.7365 5.04739 17.8936 5.19239 18.0889 5.24121L18.8936 5.44238C20.719 5.89875 22 7.53924 22 9.4209V17C22 19.7614 19.7614 22 17 22H7C4.23858 22 2 19.7614 2 17V9.4209C2.00003 7.53924 3.28096 5.89875 5.10645 5.44238L5.91113 5.24121C6.1064 5.19239 6.26349 5.04739 6.32715 4.85645C6.89574 3.15066 8.492 2.00005 10.29 2H13.71ZM12 9C9.79086 9 8 10.7909 8 13C8 15.2091 9.79086 17 12 17C14.2091 17 16 15.2091 16 13C16 10.7909 14.2091 9 12 9ZM12 11C13.1046 11 14 11.8954 14 13C14 14.1046 13.1046 15 12 15C10.8954 15 10 14.1046 10 13C10 11.8954 10.8954 11 12 11Z" fill="black"/>
</svg>
