<svg width="24" height="24" viewBox="0 0 24 24" fill="none" xmlns="http://www.w3.org/2000/svg">
<path d="M13.8887 2C14.6249 2 15.2225 2.59678 15.2227 3.33301C15.2227 3.70113 15.5206 3.99988 15.8887 4H19C19.5523 4 20 4.44772 20 5C20 5.55228 19.5523 6 19 6H5C4.44772 6 4 5.55228 4 5C4 4.44772 4.44772 4 5 4H8.11133C8.47942 3.99988 8.77734 3.70113 8.77734 3.33301C8.77752 2.59678 9.37506 2 10.1113 2H13.8887Z" fill="black"/>
<path fill-rule="evenodd" clip-rule="evenodd" d="M6 8C5.72035 8 5.45348 8.1171 5.26412 8.32289C5.07477 8.52868 4.98023 8.80436 5.00346 9.08305L5.77422 18.3322C5.94698 20.4054 7.68005 22 9.7604 22H14.2396C16.32 22 18.053 20.4054 18.2258 18.3322L18.9965 9.08305C19.0198 8.80436 18.9252 8.52868 18.7359 8.32289C18.5465 8.1171 18.2797 8 18 8H6Z" fill="black"/>
</svg>
